<svg xmlns="http://www.w3.org/2000/svg" version="1.1" xmlns:xlink="http://www.w3.org/1999/xlink" width="1500" height="1500" viewBox="0 0 1500 1500"><rect width="1500" height="1500" x="0" y="0" id="background" stroke="transparent" fill="#2b2b2b"></rect><svg xml:space="preserve" width="1000" height="1000" data-version="2" data-id="lg_5thlwfkLNVnwfvlsEw" viewBox="0 0 565 128" x="250" y="250"><rect width="100%" height="100%" fill="transparent"></rect><path fill="#d6d6d6" d="M204.645 64.047q2.77.14 4.12 1.71 1.35 1.56 1.35 5.25 0 4.26-2.27 5.86-2.28 1.59-6.39 1.59-4.12 0-7.78-1.17-3.65-1.17-5.68-2.52-2.02-1.35-3.58-2.98-1.07-1.06-1.96-2.73-.88-1.67-1.52-3.87t-.78-4.55q-8.67-1.63-14.03-7.88-5.36-6.25-5.36-15.97 0-11.58 7-18.32 6.99-6.75 18-6.75 10.93 0 17.85 6.75 6.92 6.74 6.92 18.32 0 9.3-4.86 15.44-4.86 6.14-12.89 8.13 2.92 3.19 11.86 3.69m-12.35-20.59.35-1.52q.36-1.53.36-5.19 0-3.65-.75-6.88-.74-3.24-2.45-5.47-1.7-2.24-4.04-2.24-2.35 0-4.09 2.27-1.74 2.28-2.55 5.51-.82 3.23-.82 6.85 0 2.06.28 4.04.29 1.99.89 3.8.61 1.81 1.46 3.16t2.09 2.17q1.24.81 2.74.81 2.41 0 4.11-2.13 1.71-2.13 2.42-5.18"></path><rect width="49.77" height="66.74" x="-24.89" y="-33.37" fill="none" rx="0" ry="0" transform="translate(186.15 45.59)"></rect><path fill="#d6d6d6" d="M262.085 20.597v21.16q0 10.36-5.01 14.87-5 4.51-16.86 4.51-11.29 0-16.58-4.83-5.29-4.83-5.29-14.55v-21.16q0-3.76 2.24-6.14t5.65-2.38q4.18 0 6.35 1.56t2.17 6.32v23.15q.07 2.27.74 3.62.68 1.35 1.81 1.88 1.14.53 2.91.53 1.78 0 2.91-.42 1.14-.43 1.67-1.35.53-.93.71-1.85.18-.92.18-2.41v-23.22q0-2.41.6-4.05.61-1.63 1.85-2.41 1.24-.78 2.55-1.07 1.32-.28 3.16-.28 4.12 0 6.18 1.99 2.06 1.99 2.06 6.53"></path><rect width="43.74" height="49.06" x="-21.87" y="-24.53" fill="none" rx="0" ry="0" transform="translate(240.72 37.1)"></rect><path fill="#d6d6d6" d="M287.855 50.057q0 5.54-2.06 8.1-2.05 2.55-6.24 2.55-4.12 0-6.07-2.2-1.96-2.2-1.96-7.88v-30.03q0-8.52 8.03-8.52 4.11 0 6.21 1.56 2.09 1.56 2.09 6.32Z"></path><rect width="16.33" height="48.63" x="-8.16" y="-24.32" fill="none" rx="0" ry="0" transform="translate(280.19 36.9)"></rect><path fill="#d6d6d6" d="M334.935 49.207q2.13 0 3.55.32t2.23 1.07q.82.74 1.14 1.74.32.99.32 2.48 0 3.62-2.27 4.76-2.28 1.13-7.88 1.13h-26.63q-1.99 0-4.01-1.17-2.02-1.17-3.37-3.26-1.35-2.1-1.35-4.44 0-2.13.25-3.51.24-1.39 1.17-2.88.92-1.49 1.67-2.38.74-.89 2.73-2.95l18.1-16.47h-14.41q-4.76 0-6.89-1.38-2.13-1.39-2.13-4.65 0-3.06 1.74-4.3 1.74-1.24 5.15-1.24h29.04q2.13 0 3.76.75 1.64.74 2.49 1.91.85 1.17 1.28 2.31.42 1.14.42 2.13 0 1.28-.07 2.27-.07 1-.39 1.88-.32.89-.46 1.39-.14.49-.82 1.35-.67.85-.96 1.13l-1.34 1.39q-1.07 1.1-1.5 1.52l-20.73 19.1Z"></path><rect width="45.51" height="48.63" x="-22.75" y="-24.32" fill="none" rx="0" ry="0" transform="translate(319.92 36.9)"></rect><path fill="#d6d6d6" d="M386.545 51.057q1.85 0 3.23-.39 1.39-.39 2.63-1.42 1.24-1.03 2.02-2.74.79-1.7 1.25-4.36.46-2.66.46-6.29 0-4.04-.71-6.85-.71-2.8-2.06-4.26-1.35-1.45-2.95-2.06-1.59-.6-3.87-.67Zm2.13-38.91q11.08 0 17.79 6.39 6.71 6.39 6.71 17.61 0 3.62-.68 7.03-.67 3.41-2.23 6.64-1.56 3.23-3.91 5.61-2.34 2.37-5.96 3.83-3.62 1.45-8.17 1.45h-13.98q-4.33 0-6.22-2.2-1.88-2.2-1.88-7.95v-29.96q0-8.45 8.1-8.45Z"></path><rect width="43.03" height="48.56" x="-21.52" y="-24.28" fill="none" rx="0" ry="0" transform="translate(392.16 36.93)"></rect><path fill="#d6d6d6" d="M441.855 23.647q-3.05 0-4.51 1.78-1.45 1.77-1.45 6.32v8.37h11.78v-8.52q0-2.98-.71-4.79t-1.95-2.48q-1.24-.68-3.16-.68m5.82 26.27h-11.78v3.77q0 3.62-1.92 5.32-1.92 1.7-6.6 1.7-1.99 0-3.27-.56-1.28-.57-2.23-1.92-.96-1.35-1.42-3.94-.47-2.59-.71-6.25-.25-3.66-.25-9.26 0-4.9 1.03-8.99 1.03-4.08 2.77-6.92t3.94-5q2.2-2.17 4.79-3.38 2.59-1.2 5.04-1.81 2.45-.6 4.93-.6 2.99 0 5.9.82 2.91.81 5.89 2.8 2.98 1.99 5.22 4.94 2.24 2.94 3.66 7.63 1.42 4.68 1.42 10.51 0 9.37-.68 13.88-.67 4.5-2.27 6.28-1.6 1.77-4.94 1.77-4.68 0-6.6-1.7t-1.92-5.32Z"></path><rect width="44.59" height="48.63" x="-22.3" y="-24.32" fill="none" rx="0" ry="0" transform="translate(442.29 36.9)"></rect><path fill="#d6d6d6" d="M496.955 50.057q0 4.05-1 6.43-.99 2.38-2.73 3.3-1.74.92-4.58.92-4.19 0-6.07-2.23-1.88-2.24-1.95-7.92l-.14-26.2h-6.04q-4.47 0-6.71-1.42-2.23-1.42-2.23-5.04 0-2.2.88-3.48.89-1.28 2.67-1.81 1.77-.53 4.75-.53h30.39q3.98 0 5.75 1.42 1.78 1.42 1.78 4.9 0 2.34-1.03 3.66-1.03 1.31-2.74 1.81-1.7.49-4.4.49h-6.6Z"></path><rect width="46.22" height="48.63" x="-23.11" y="-24.32" fill="none" rx="0" ry="0" transform="translate(489.12 36.9)"></rect><path fill="#d6d6d6" d="M547.785 31.887q3.77 0 5.29 1.21 1.53 1.2 1.53 4.11 0 2.42-1.81 3.45-1.81 1.03-5.64 1.03h-11.51v7.52l15.41.07q3.98 0 5.72 1.18 1.74 1.17 1.74 4.15 0 3.41-2.03 4.76-2.02 1.34-6.14 1.34h-23q-4.19 0-6.15-2.23-1.95-2.24-1.95-7.92v-29.96q0-8.52 8.1-8.52h23q4.12 0 6.14 1.28 2.03 1.28 2.03 4.61 0 3.13-1.74 4.37-1.74 1.24-5.72 1.24h-15.48v8.31Z"></path><rect width="39.27" height="48.63" x="-19.64" y="-24.32" fill="none" rx="0" ry="0" transform="translate(539.38 36.9)"></rect><path fill="#d6d6d6" d="M190.445 109.437q0 5.75-2.06 8.2-2.06 2.45-6.32 2.45-4.11 0-6.03-2.24t-1.99-7.92l-.07-11.5-10.93-12.78q-2.99-3.41-2.99-5.89 0-3.91 2.99-6.18 2.84-2.13 5.04-2.13 3.05 0 5.46 2.77l8.67 10.08 7.24-8.45q3.62-4.33 7.74-4.33 3.05 0 4.75 1.71 2.91 2.91 2.91 5.6 0 1.5-.99 3.16-.99 1.67-3.19 4.3l-10.23 12.5Z"></path><rect width="44.8" height="48.64" x="-22.4" y="-24.32" fill="none" rx="0" ry="0" transform="translate(182.96 96.27)"></rect><path fill="#d6d6d6" d="M233.255 110.147q2.42 0 4.16-2.13 1.74-2.13 2.48-5.26.75-3.12.75-6.67 0-3.62-.78-6.85-.78-3.23-2.52-5.51-1.74-2.27-4.09-2.27-2.27 0-3.97 2.27-1.71 2.28-2.56 5.54-.85 3.27-.85 6.82 0 3.55.82 6.67.81 3.13 2.55 5.26 1.74 2.13 4.01 2.13m12.57 7.56-2.8 1.4q-2.81 1.4-9.8 1.4t-12.57-2.8q-5.57-2.81-8.91-8.42-3.34-5.61-3.34-13.2 0-11.5 6.93-18.29 6.92-6.78 17.92-6.78 11.01 0 17.97 6.78 6.96 6.79 6.96 18.29 0 7.59-3.38 13.2-3.37 5.61-8.98 8.42"></path><rect width="49.78" height="49.49" x="-24.89" y="-24.75" fill="none" rx="0" ry="0" transform="translate(233.8 96.26)"></rect><path fill="#d6d6d6" d="M309.725 79.967v21.16q0 10.36-5 14.87-5.01 4.51-16.87 4.51-11.29 0-16.58-4.83-5.28-4.82-5.28-14.55v-21.16q0-3.76 2.23-6.14 2.24-2.38 5.65-2.38 4.19 0 6.35 1.56 2.17 1.56 2.17 6.32v23.15q.07 2.27.74 3.62.68 1.35 1.81 1.88 1.14.53 2.91.53 1.78 0 2.91-.42 1.14-.43 1.67-1.35.54-.93.71-1.85.18-.92.18-2.41v-23.22q0-2.41.6-4.05.61-1.63 1.85-2.41 1.24-.78 2.56-1.07 1.31-.28 3.16-.28 4.11 0 6.17 1.99 2.06 1.99 2.06 6.53"></path><rect width="43.73" height="49.06" x="-21.86" y="-24.53" fill="none" rx="0" ry="0" transform="translate(288.36 96.48)"></rect><path fill="#d6d6d6" d="m129.263 65.309-16.561-16.56V5.923a4.467 4.467 0 0 0-4.467-4.468H76.963a4.467 4.467 0 0 0-2.908 7.854l29.712 25.473v13.965L63.561 88.955 44.382 69.776a4.463 4.463 0 0 0-6.317 0L6.793 101.048a4.45 4.45 0 0 0-1.309 3.159v17.87a4.467 4.467 0 0 0 4.468 4.467h116.152a4.467 4.467 0 0 0 4.468-4.468V68.467a4.45 4.45 0 0 0-1.31-3.158"></path></svg></svg>